<?xml version="1.0" encoding="UTF-8"?>
<svg version="1.1" xmlns="http://www.w3.org/2000/svg" width="28" height="28">
<path d="M0 0 C9.24 0 18.48 0 28 0 C28 9.24 28 18.48 28 28 C18.76 28 9.52 28 0 28 C0 18.76 0 9.52 0 0 Z " fill="#EB0404" transform="translate(0,0)"/>
<path d="M0 0 C1.98 0 3.96 0 6 0 C6 0.66 6 1.32 6 2 C6.99 1.34 7.98 0.68 9 0 C11.6875 -0.125 11.6875 -0.125 14 0 C13.875 2.8125 13.875 2.8125 13 6 C12.05125 6.45375 11.1025 6.9075 10.125 7.375 C6.75501153 9.12739401 6.45534946 9.47572207 5.1875 12.8125 C4.13431427 16.1641087 3.43623644 19.51010852 3 23 C0.69 23 -1.62 23 -4 23 C-3.48400816 15.1177798 -1.9078547 7.65541695 0 0 Z " fill="#FDEFEF" transform="translate(9,3)"/>
</svg>
