<?xml version="1.0" encoding="UTF-8"?>
<svg id="Layer_1" data-name="Layer 1" xmlns="http://www.w3.org/2000/svg" viewBox="0 0 150 150">
  <defs>
    <style>
      .cls-1 {
        fill: #fff;
      }

      .cls-2 {
        fill: #eb0000;
      }
    </style>
  </defs>
  <rect class="cls-2" width="150" height="150"/>
  <path class="cls-1" d="M74.9,44.51l4.65-24.47h-28.72l-21.36,112.32h32.62l8.81-46.31c5.19-27.31,20.86-38.24,43.16-34.86l6.37-33.5c-20.07-1.83-37.98,9.65-45.52,26.82ZM68.57,130.48c.1-1.12-.72-2.03-1.84-2.03s-2.11.91-2.21,2.03c-.11,1.03.65,2.02,1.84,2.02,1.12,0,2.11-.9,2.21-2.02ZM68.28,130.46c-.08.97-.95,1.76-1.92,1.76s-1.64-.76-1.56-1.71c.08-.96.94-1.76,1.92-1.76s1.64.76,1.56,1.71ZM66.87,130.73l.32.94h-.31l-.31-.92h-.45l-.17.92h-.3l.45-2.39h.78c.36,0,.63.26.64.6,0,.31-.21.72-.65.84h0ZM66.88,129.57h-.54l-.17.89h.49c.26,0,.49-.2.56-.48.05-.21-.12-.42-.34-.42h0Z"/>
</svg>