<?xml version="1.0" encoding="UTF-8"?>
<svg id="Layer_1" xmlns="http://www.w3.org/2000/svg" version="1.1" viewBox="0 0 150 150">
  <!-- Generator: Adobe Illustrator 29.8.1, SVG Export Plug-In . SVG Version: 2.1.1 Build 2)  -->
  <defs>
    <style>
      .st0 {
        fill: #eb0000;
      }
    </style>
  </defs>
  <path class="st0" d="M74.9,44.5l4.6-24.5h-28.7l-21.4,112.3h32.6l8.8-46.3c5.2-27.3,20.9-38.2,43.2-34.9l6.4-33.5c-20.1-1.8-38,9.7-45.5,26.8ZM68.6,130.5c.1-1.1-.7-2-1.8-2s-2.1.9-2.2,2c-.1,1,.6,2,1.8,2,1.1,0,2.1-.9,2.2-2ZM68.3,130.5c0,1-1,1.8-1.9,1.8s-1.6-.8-1.6-1.7c0-1,.9-1.8,1.9-1.8s1.6.8,1.6,1.7ZM66.9,130.7l.3.9h-.3l-.3-.9h-.5l-.2.9h-.3l.5-2.4h.8c.4,0,.6.3.6.6,0,.3-.2.7-.6.8h0ZM66.9,129.6h-.5l-.2.9h.5c.3,0,.5-.2.6-.5,0-.2-.1-.4-.3-.4h0Z"/>
</svg>