<svg width="52" height="56" viewBox="0 0 52 56" fill="none" xmlns="http://www.w3.org/2000/svg">
<g clip-path="url(#clip0_30854_120939)">
<path d="M45.8013 0H6.19868C2.77524 0 0 2.8745 0 6.42038V49.5796C0 53.1255 2.77524 56 6.19868 56H45.8013C49.2248 56 52 53.1255 52 49.5796V6.42038C52 2.8745 49.2248 0 45.8013 0Z" fill="#1B2D4A"/>
<path d="M5.39698 44.4059C5.36345 44.6816 5.22934 44.9229 5.00581 45.1182C4.58109 45.4857 3.95522 45.4857 3.64227 45.1068C3.48581 44.9229 3.41876 44.6702 3.45228 44.4059L4.4358 37.2257C4.46935 36.9614 4.60346 36.7201 4.80463 36.5248C5.22934 36.1343 5.86641 36.1343 6.19053 36.5134C6.34698 36.7087 6.41404 36.95 6.38052 37.2257L5.39698 44.4059Z" fill="white"/>
<path d="M10.7056 44.4059C10.6721 44.6816 10.5379 44.9229 10.3144 45.1182C9.8897 45.4857 9.26379 45.4857 8.95085 45.1068C8.79442 44.9229 8.72735 44.6702 8.76087 44.4059L9.7444 37.2257C9.77796 36.9614 9.91205 36.7201 10.1132 36.5248C10.5379 36.1343 11.175 36.1343 11.4991 36.5134C11.6556 36.7087 11.7226 36.95 11.6891 37.2257L10.7056 44.4059Z" fill="white"/>
<path d="M7.94512 39.8107C8.21337 39.8107 8.4369 39.9142 8.59338 40.1095C8.89513 40.4886 8.80572 41.1435 8.39218 41.5111C8.17983 41.6949 7.93394 41.7982 7.6657 41.7982H4.771C4.51394 41.7982 4.29041 41.7063 4.12277 41.5225C3.79865 41.1435 3.88805 40.4886 4.31276 40.098C4.52512 39.9028 4.78218 39.7993 5.03923 39.7993H7.94512V39.8107Z" fill="white"/>
<path d="M17.3668 45.3367H12.8291C12.5609 45.3367 12.3373 45.2333 12.1809 45.0494C12.0244 44.8657 11.9574 44.6128 11.9908 44.3487L12.952 37.2949C12.9856 37.0305 13.1197 36.7778 13.3209 36.5941C13.5332 36.3987 13.7791 36.2954 14.0474 36.2954H18.585C18.8421 36.2954 19.0544 36.3987 19.2109 36.5825C19.3674 36.7664 19.4232 37.0077 19.3896 37.2718C19.3562 37.5362 19.2221 37.7773 19.0096 37.9611C18.8085 38.1334 18.5626 38.2369 18.3167 38.2369H14.7626L14.5391 39.8682H17.6908C17.9479 39.8682 18.1602 39.9602 18.3167 40.1439C18.4732 40.3278 18.5402 40.5691 18.4956 40.8332C18.4621 41.0975 18.3279 41.3388 18.1156 41.5225C17.9143 41.695 17.6686 41.7868 17.4226 41.7868H14.2709L14.0474 43.4297H17.6015C17.8585 43.4297 18.0708 43.533 18.2274 43.7168C18.3839 43.9007 18.4397 44.1418 18.4061 44.4061C18.3727 44.6704 18.2386 44.9116 18.0263 45.0954C17.8585 45.2447 17.6127 45.3367 17.3668 45.3367Z" fill="white"/>
<path d="M25.9394 45.3942C25.6265 45.3942 25.3694 45.245 25.2241 44.9807L23.5365 42.3383L21.1447 45.0037C20.8429 45.3252 20.5412 45.3942 20.3399 45.3942C20.094 45.3942 19.8817 45.2908 19.7252 45.1071C19.5689 44.9232 19.5129 44.6935 19.5465 44.4292C19.5799 44.1993 19.6694 43.9926 19.8258 43.8204L22.6312 40.7989L20.6865 37.812C20.5746 37.6167 20.5412 37.4214 20.5634 37.1915C20.597 36.9158 20.7311 36.6747 20.9322 36.4908C21.2565 36.2035 21.7258 36.1232 22.0723 36.3185C22.2064 36.3873 22.307 36.4908 22.3741 36.6056L24.0393 39.248L26.4311 36.5826C26.7554 36.169 27.493 36.0886 27.8393 36.4908C28.007 36.6747 28.0629 36.9158 28.0294 37.1801C27.996 37.3868 27.9176 37.5822 27.7725 37.7429L24.9559 40.7874L26.9229 43.7974C27.0347 43.9466 27.0793 44.1535 27.0458 44.3948C27.0124 44.6589 26.8783 44.9002 26.677 45.0955C26.4647 45.3022 26.2188 45.3942 25.9394 45.3942Z" fill="white"/>
<path d="M29.1353 45.5096C28.5781 45.5096 28.202 45.0363 28.2855 44.4769L29.2606 37.2471C29.3441 36.6877 29.8455 36.2144 30.4027 36.2144C30.9599 36.2144 31.336 36.6877 31.2525 37.2471L30.9181 39.6858C31.5171 39.0689 32.2553 38.653 33.1606 38.653C34.6789 38.653 35.8908 39.9296 35.5982 42.0384C35.3196 44.0895 33.8292 45.5096 32.2274 45.5096C31.322 45.5096 30.6534 45.0937 30.2634 44.5198L30.2355 44.7351C30.0406 45.1942 29.5948 45.5096 29.1353 45.5096ZM31.7957 43.7883C32.7846 43.7883 33.4671 43.0567 33.6064 42.0384C33.7457 41.0341 33.2443 40.2883 32.2832 40.2883C31.6703 40.2883 31.0574 40.6469 30.7092 41.2494L30.5002 42.8129C30.6813 43.4583 31.1967 43.7883 31.7957 43.7883ZM39.5883 45.4954C37.5407 45.4954 36.1616 44.1756 36.4402 42.1243C36.6909 40.2596 38.2093 38.6816 40.1453 38.6816C42.0955 38.6816 43.1541 40.0013 42.9311 41.7657C42.8615 42.2964 42.5134 42.5976 41.9979 42.5976H38.3765C38.3346 43.3579 38.9893 43.8887 39.9922 43.8887C40.3683 43.8887 40.8976 43.8314 41.4129 43.6736C41.8865 43.5445 42.2904 43.9031 42.2208 44.3909C42.179 44.6921 41.9701 44.9646 41.7055 45.0793C40.7722 45.4667 39.9643 45.4954 39.5883 45.4954ZM38.5574 41.3211H41.0508C41.0646 40.7042 40.6329 40.2738 39.9643 40.2738C39.3374 40.2738 38.7386 40.7042 38.5574 41.3211ZM46.9265 45.4954C44.879 45.4954 43.5 44.1756 43.7786 42.1243C44.0293 40.2596 45.5476 38.6816 47.4837 38.6816C49.4337 38.6816 50.4923 40.0013 50.2695 41.7657C50.1999 42.2964 49.8516 42.5976 49.3362 42.5976H45.7147C45.673 43.3579 46.3276 43.8887 47.3304 43.8887C47.7065 43.8887 48.2358 43.8314 48.7513 43.6736C49.2248 43.5445 49.6288 43.9031 49.5592 44.3909C49.5174 44.6921 49.3083 44.9646 49.0437 45.0793C48.1104 45.4667 47.3025 45.4954 46.9265 45.4954ZM45.8958 41.3211H48.389C48.403 40.7042 47.9711 40.2738 47.3025 40.2738C46.6758 40.2738 46.0769 40.7042 45.8958 41.3211Z" fill="#FDF1C4"/>
<path d="M21.5814 17.376C21.5814 17.376 21.179 24.4639 25.7075 29.6756C25.7075 29.6756 20.7876 30.8876 18.965 24.8808C17.3045 19.4085 21.5814 17.376 21.5814 17.376Z" fill="#FACF39"/>
<path d="M27.1818 16.4414C27.1818 16.4414 26.8312 22.616 30.7762 27.1562C30.7762 27.1562 26.4903 28.2121 24.9024 22.9793C23.456 18.212 27.1818 16.4414 27.1818 16.4414Z" fill="#FACF39"/>
<path d="M16.8019 21.8423C16.8019 21.8423 16.5295 26.6394 19.5943 30.1665C19.5943 30.1665 16.676 30.353 15.4306 26.7829C14.5026 24.1229 16.8019 21.8423 16.8019 21.8423Z" fill="#FACF39"/>
<path d="M31.9215 14.5881C31.9215 14.5881 21.8077 1.45454 14.8638 7.23953C7.92005 13.0245 31.9215 14.5881 31.9215 14.5881Z" fill="#FACF39"/>
<path d="M35.4338 22.9369C37.1657 22.9369 38.5695 21.4829 38.5695 19.6892C38.5695 17.8955 37.1657 16.4414 35.4338 16.4414C33.7022 16.4414 32.2983 17.8955 32.2983 19.6892C32.2983 21.4829 33.7022 22.9369 35.4338 22.9369Z" fill="#FACF39"/>
<path d="M11 48H11.4734V51.3603L11.4327 51.8926H11V48ZM13.334 50.4988V50.552C13.334 50.7513 13.3103 50.9363 13.2627 51.107C13.2152 51.2759 13.1457 51.423 13.054 51.5479C12.9624 51.6729 12.8504 51.7701 12.7181 51.8393C12.5857 51.9085 12.4338 51.9433 12.2625 51.9433C12.0877 51.9433 11.9341 51.9137 11.8018 51.8545C11.6711 51.7938 11.5608 51.7067 11.4709 51.5935C11.3809 51.4803 11.3088 51.3436 11.2545 51.1831C11.2019 51.0226 11.1654 50.8417 11.1451 50.6406V50.4074C11.1654 50.2048 11.2019 50.0232 11.2545 49.8627C11.3088 49.7022 11.3809 49.5653 11.4709 49.4521C11.5608 49.3373 11.6711 49.2502 11.8018 49.191C11.9324 49.1303 12.0843 49.0999 12.2574 49.0999C12.4304 49.0999 12.584 49.1336 12.7181 49.2012C12.8521 49.2672 12.9641 49.3617 13.054 49.4851C13.1457 49.6084 13.2152 49.7562 13.2627 49.9286C13.3103 50.0991 13.334 50.2892 13.334 50.4988ZM12.8606 50.552V50.4988C12.8606 50.3619 12.8479 50.2335 12.8224 50.1135C12.797 49.9918 12.7562 49.8856 12.7002 49.7942C12.6442 49.7014 12.5704 49.6287 12.4788 49.5763C12.3872 49.5222 12.2743 49.4951 12.1403 49.4951C12.0215 49.4951 11.918 49.5155 11.8297 49.5561C11.7432 49.5966 11.6694 49.6514 11.6083 49.7208C11.5472 49.7883 11.4972 49.8661 11.4581 49.954C11.4208 50.0401 11.3928 50.1297 11.3742 50.2225V50.8332C11.4013 50.9514 11.4454 51.0656 11.5065 51.1754C11.5693 51.2836 11.6524 51.3722 11.7559 51.4414C11.8611 51.5108 11.991 51.5454 12.1454 51.5454C12.2726 51.5454 12.3812 51.5201 12.4712 51.4693C12.5628 51.417 12.6366 51.3451 12.6926 51.254C12.7503 51.1627 12.7927 51.0572 12.8199 50.9372C12.847 50.8173 12.8606 50.6889 12.8606 50.552ZM14.7771 51.6087L15.5432 49.1505H16.0471L14.9425 52.3159C14.9171 52.3833 14.8831 52.456 14.8407 52.5337C14.8 52.6132 14.7474 52.6884 14.6829 52.7593C14.6184 52.8303 14.5404 52.8877 14.4487 52.9316C14.3588 52.9773 14.2511 53 14.1255 53C14.0882 53 14.0407 52.995 13.9829 52.9848C13.9253 52.9746 13.8845 52.9662 13.8608 52.9594L13.8582 52.5794C13.8718 52.5811 13.893 52.5827 13.9219 52.5844C13.9524 52.5879 13.9736 52.5894 13.9855 52.5894C14.0924 52.5894 14.1832 52.5752 14.2578 52.5463C14.3325 52.5194 14.3953 52.4729 14.4462 52.407C14.4988 52.3428 14.5438 52.2542 14.5811 52.1409L14.7771 51.6087ZM14.2146 49.1505L14.9298 51.2794L15.052 51.7734L14.7134 51.9458L13.7004 49.1505H14.2146ZM18.4446 49.736V51.8926H17.9737V49.1505H18.4191L18.4446 49.736ZM18.3326 50.4176L18.1367 50.4101C18.1384 50.2225 18.1664 50.0493 18.2206 49.8905C18.2749 49.73 18.3514 49.5907 18.4496 49.4725C18.5481 49.354 18.6653 49.2629 18.801 49.1987C18.9385 49.1328 19.0902 49.0999 19.2566 49.0999C19.3923 49.0999 19.5146 49.1184 19.6231 49.1557C19.7318 49.191 19.8242 49.2485 19.9005 49.3279C19.9785 49.4073 20.038 49.5103 20.0787 49.6372C20.1194 49.7621 20.1397 49.915 20.1397 50.0958V51.8926H19.6663V50.0907C19.6663 49.9471 19.6451 49.8323 19.6028 49.746C19.5603 49.6581 19.4983 49.5949 19.4169 49.5561C19.3354 49.5155 19.2354 49.4951 19.1165 49.4951C18.9995 49.4951 18.8925 49.5197 18.7958 49.5688C18.7008 49.6178 18.6186 49.6852 18.549 49.7714C18.4811 49.8577 18.4276 49.9565 18.3886 50.068C18.3514 50.1777 18.3326 50.2944 18.3326 50.4176ZM22.6441 51.259V49.1505H23.1177V51.8926H22.6671L22.6441 51.259ZM22.7333 50.6812L22.9293 50.6762C22.9293 50.8586 22.9098 51.0276 22.8708 51.1831C22.8333 51.3367 22.7723 51.4703 22.6876 51.5835C22.6026 51.6965 22.4914 51.7853 22.3539 51.8495C22.2167 51.912 22.0495 51.9433 21.8526 51.9433C21.7186 51.9433 21.5956 51.9239 21.4836 51.8849C21.3732 51.8461 21.2782 51.7861 21.1985 51.705C21.1187 51.624 21.0567 51.5183 21.0127 51.3882C20.9703 51.2582 20.949 51.102 20.949 50.9195V49.1505H21.4199V50.9245C21.4199 51.0477 21.4334 51.15 21.4606 51.2311C21.4894 51.3105 21.5276 51.374 21.5751 51.4212C21.6244 51.4668 21.6786 51.4989 21.7381 51.5176C21.7991 51.5362 21.862 51.5454 21.9265 51.5454C22.1267 51.5454 22.2854 51.5074 22.4024 51.4314C22.5194 51.3536 22.6034 51.2498 22.6543 51.1196C22.7071 50.9878 22.7333 50.8417 22.7333 50.6812ZM25.6756 51.3603V48H26.149V51.8926H25.7161L25.6756 51.3603ZM23.8226 50.552V50.4988C23.8226 50.2892 23.8481 50.0991 23.8988 49.9286C23.9515 49.7562 24.0253 49.6084 24.1203 49.4851C24.217 49.3617 24.3317 49.2672 24.4639 49.2012C24.5981 49.1336 24.7473 49.0999 24.9118 49.0999C25.085 49.0999 25.236 49.1303 25.365 49.191C25.4957 49.2502 25.6059 49.3373 25.6959 49.4521C25.7876 49.5653 25.8596 49.7022 25.9123 49.8627C25.9648 50.0232 26.0013 50.2048 26.0218 50.4074V50.6406C26.003 50.8417 25.9665 51.0226 25.9123 51.1831C25.8596 51.3436 25.7876 51.4803 25.6959 51.5935C25.6059 51.7067 25.4957 51.7938 25.365 51.8545C25.2343 51.9137 25.0815 51.9433 24.9068 51.9433C24.7456 51.9433 24.5981 51.9085 24.4639 51.8393C24.3317 51.7701 24.217 51.6729 24.1203 51.5479C24.0253 51.423 23.9515 51.2759 23.8988 51.107C23.8481 50.9363 23.8226 50.7513 23.8226 50.552ZM24.296 50.4988V50.552C24.296 50.6889 24.3095 50.8173 24.3367 50.9372C24.3655 51.0572 24.4097 51.1627 24.4691 51.254C24.5284 51.3451 24.6039 51.417 24.6956 51.4693C24.7871 51.5201 24.8966 51.5454 25.024 51.5454C25.18 51.5454 25.3082 51.5124 25.4082 51.4466C25.5101 51.3807 25.5914 51.2936 25.6526 51.1856C25.7136 51.0774 25.7611 50.9599 25.7951 50.8332V50.2225C25.7748 50.1297 25.7451 50.0401 25.7061 49.954C25.6686 49.8661 25.6196 49.7883 25.5584 49.7208C25.4989 49.6514 25.4252 49.5966 25.337 49.5561C25.2505 49.5155 25.1478 49.4951 25.029 49.4951C24.9001 49.4951 24.7889 49.5222 24.6956 49.5763C24.6039 49.6287 24.5284 49.7014 24.4691 49.7942C24.4097 49.8856 24.3655 49.9918 24.3367 50.1135C24.3095 50.2335 24.296 50.3619 24.296 50.4988ZM28.7704 49.1505H29.198V51.8343C29.198 52.076 29.1488 52.282 29.0503 52.4527C28.9521 52.6232 28.8146 52.7526 28.6382 52.8405C28.4632 52.9298 28.2615 52.9746 28.0323 52.9746C27.9373 52.9746 27.8254 52.9594 27.6964 52.9291C27.5692 52.9004 27.4435 52.8505 27.3197 52.7795C27.1975 52.7103 27.0948 52.6165 27.0116 52.4983L27.2585 52.2196C27.374 52.358 27.4944 52.4543 27.6199 52.5085C27.7472 52.5625 27.8729 52.5894 27.9966 52.5894C28.146 52.5894 28.275 52.5615 28.3835 52.5058C28.4922 52.45 28.5762 52.3674 28.6356 52.2574C28.6967 52.1494 28.7272 52.016 28.7272 51.857V49.7537L28.7704 49.1505ZM26.8743 50.552V50.4988C26.8743 50.2892 26.8988 50.0991 26.9481 49.9286C26.999 49.7562 27.0711 49.6084 27.1643 49.4851C27.2595 49.3617 27.374 49.2672 27.508 49.2012C27.6421 49.1336 27.7931 49.0999 27.9611 49.0999C28.1341 49.0999 28.2852 49.1303 28.4142 49.191C28.5447 49.2502 28.6551 49.3373 28.7449 49.4521C28.8366 49.5653 28.9088 49.7022 28.9613 49.8627C29.014 50.0232 29.0503 50.2048 29.0708 50.4074V50.6406C29.0521 50.8417 29.0156 51.0226 28.9613 51.1831C28.9088 51.3436 28.8366 51.4803 28.7449 51.5935C28.6551 51.7067 28.5447 51.7938 28.4142 51.8545C28.2835 51.9137 28.1308 51.9433 27.9561 51.9433C27.7914 51.9433 27.6421 51.9085 27.508 51.8393C27.3757 51.7701 27.262 51.6729 27.167 51.5479C27.0718 51.423 26.999 51.2759 26.9481 51.107C26.8988 50.9363 26.8743 50.7513 26.8743 50.552ZM27.345 50.4988V50.552C27.345 50.6889 27.3587 50.8173 27.3858 50.9372C27.4147 51.0572 27.458 51.1627 27.5157 51.254C27.575 51.3451 27.6506 51.417 27.7421 51.4693C27.8339 51.5201 27.9433 51.5454 28.0705 51.5454C28.2265 51.5454 28.3555 51.5124 28.4574 51.4466C28.5592 51.3807 28.6399 51.2936 28.6992 51.1856C28.7604 51.0774 28.8079 50.9599 28.8416 50.8332V50.2225C28.8231 50.1297 28.7941 50.0401 28.7552 49.954C28.7179 49.8661 28.6687 49.7883 28.6076 49.7208C28.5482 49.6514 28.4744 49.5966 28.3862 49.5561C28.298 49.5155 28.1943 49.4951 28.0756 49.4951C27.9466 49.4951 27.8356 49.5222 27.7421 49.5763C27.6506 49.6287 27.575 49.7014 27.5157 49.7942C27.458 49.8856 27.4147 49.9918 27.3858 50.1135C27.3587 50.2335 27.345 50.3619 27.345 50.4988ZM31.1603 51.9433C30.9686 51.9433 30.7947 51.9112 30.6387 51.847C30.4842 51.7811 30.351 51.689 30.239 51.5708C30.1286 51.4524 30.0438 51.3123 29.9844 51.15C29.9251 50.9878 29.8954 50.8105 29.8954 50.6179V50.5114C29.8954 50.2885 29.9284 50.0899 29.9946 49.9159C30.0608 49.7402 30.1508 49.5914 30.2645 49.4698C30.378 49.3483 30.507 49.2562 30.6512 49.1935C30.7956 49.1311 30.9449 49.0999 31.0993 49.0999C31.2961 49.0999 31.4658 49.1336 31.6082 49.2012C31.7527 49.2689 31.8704 49.3635 31.9621 49.4851C32.0538 49.6051 32.1216 49.747 32.1658 49.9107C32.2098 50.073 32.2318 50.2504 32.2318 50.443V50.6533H30.1753V50.2706H31.761V50.2352C31.7542 50.1135 31.7287 49.9953 31.6847 49.8804C31.6422 49.7656 31.5745 49.6708 31.481 49.5966C31.3878 49.5222 31.2605 49.4851 31.0993 49.4851C30.9924 49.4851 30.8939 49.5078 30.8039 49.5536C30.7142 49.5974 30.6369 49.6633 30.5725 49.7512C30.508 49.839 30.4578 49.9463 30.4223 50.073C30.3865 50.1996 30.3688 50.3459 30.3688 50.5114V50.6179C30.3688 50.7479 30.3865 50.8705 30.4223 50.9853C30.4595 51.0985 30.513 51.1983 30.5825 51.2844C30.6539 51.3705 30.7395 51.4382 30.8397 51.4872C30.9414 51.5362 31.0569 51.5606 31.1858 51.5606C31.352 51.5606 31.493 51.5268 31.6082 51.4593C31.7237 51.3916 31.8247 51.3013 31.9112 51.1881L32.1963 51.4136C32.1368 51.5031 32.0614 51.5885 31.9698 51.6696C31.8781 51.7507 31.7652 51.8165 31.6312 51.8672C31.499 51.918 31.342 51.9433 31.1603 51.9433ZM32.8834 48H33.3568V51.3603L33.3161 51.8926H32.8834V48ZM35.2174 50.4988V50.552C35.2174 50.7513 35.1936 50.9363 35.1461 51.107C35.0986 51.2759 35.0291 51.423 34.9374 51.5479C34.8457 51.6729 34.7337 51.7701 34.6015 51.8393C34.4691 51.9085 34.3173 51.9433 34.1459 51.9433C33.9711 51.9433 33.8175 51.9137 33.6852 51.8545C33.5545 51.7938 33.4443 51.7067 33.3543 51.5935C33.2643 51.4803 33.1923 51.3436 33.1379 51.1831C33.0854 51.0226 33.0489 50.8417 33.0284 50.6406V50.4074C33.0489 50.2048 33.0854 50.0232 33.1379 49.8627C33.1923 49.7022 33.2643 49.5653 33.3543 49.4521C33.4443 49.3373 33.5545 49.2502 33.6852 49.191C33.8159 49.1303 33.9677 49.0999 34.1408 49.0999C34.3138 49.0999 34.4675 49.1336 34.6015 49.2012C34.7355 49.2672 34.8475 49.3617 34.9374 49.4851C35.0291 49.6084 35.0986 49.7562 35.1461 49.9286C35.1936 50.0991 35.2174 50.2892 35.2174 50.4988ZM34.744 50.552V50.4988C34.744 50.3619 34.7312 50.2335 34.7057 50.1135C34.6805 49.9918 34.6397 49.8856 34.5837 49.7942C34.5277 49.7014 34.4538 49.6287 34.3623 49.5763C34.2706 49.5222 34.1578 49.4951 34.0237 49.4951C33.9049 49.4951 33.8014 49.5155 33.7132 49.5561C33.6267 49.5966 33.5528 49.6514 33.4918 49.7208C33.4306 49.7883 33.3806 49.8661 33.3416 49.954C33.3043 50.0401 33.2763 50.1297 33.2576 50.2225V50.8332C33.2848 50.9514 33.3288 51.0656 33.3898 51.1754C33.4528 51.2836 33.5358 51.3722 33.6393 51.4414C33.7445 51.5108 33.8744 51.5454 34.0289 51.5454C34.1561 51.5454 34.2646 51.5201 34.3546 51.4693C34.4463 51.417 34.52 51.3451 34.576 51.254C34.6337 51.1627 34.6762 51.0572 34.7032 50.9372C34.7305 50.8173 34.744 50.6889 34.744 50.552ZM37.0602 51.9433C36.8684 51.9433 36.6945 51.9112 36.5383 51.847C36.3839 51.7811 36.2506 51.689 36.1387 51.5708C36.0284 51.4524 35.9435 51.3123 35.8842 51.15C35.8247 50.9878 35.795 50.8105 35.795 50.6179V50.5114C35.795 50.2885 35.8282 50.0899 35.8944 49.9159C35.9605 49.7402 36.0504 49.5914 36.1641 49.4698C36.2779 49.3483 36.4068 49.2562 36.551 49.1935C36.6953 49.1311 36.8445 49.0999 36.999 49.0999C37.1959 49.0999 37.3656 49.1336 37.5081 49.2012C37.6523 49.2689 37.7702 49.3635 37.8618 49.4851C37.9535 49.6051 38.0214 49.747 38.0654 49.9107C38.1097 50.073 38.1317 50.2504 38.1317 50.443V50.6533H36.0751V50.2706H37.6608V50.2352C37.654 50.1135 37.6285 49.9953 37.5843 49.8804C37.542 49.7656 37.4741 49.6708 37.3808 49.5966C37.2874 49.5222 37.1602 49.4851 36.999 49.4851C36.8922 49.4851 36.7937 49.5078 36.7038 49.5536C36.6138 49.5974 36.5366 49.6633 36.4721 49.7512C36.4076 49.839 36.3576 49.9463 36.3219 50.073C36.2864 50.1996 36.2686 50.3459 36.2686 50.5114V50.6179C36.2686 50.7479 36.2864 50.8705 36.3219 50.9853C36.3593 51.0985 36.4128 51.1983 36.4823 51.2844C36.5536 51.3705 36.6393 51.4382 36.7395 51.4872C36.8412 51.5362 36.9567 51.5606 37.0856 51.5606C37.2519 51.5606 37.3926 51.5268 37.5081 51.4593C37.6235 51.3916 37.7245 51.3013 37.811 51.1881L38.0959 51.4136C38.0367 51.5031 37.9612 51.5885 37.8695 51.6696C37.7778 51.7507 37.665 51.8165 37.531 51.8672C37.3986 51.918 37.2416 51.9433 37.0602 51.9433ZM39.9285 51.9433C39.7368 51.9433 39.5628 51.9112 39.4066 51.847C39.2524 51.7811 39.1192 51.689 39.0072 51.5708C38.8968 51.4524 38.812 51.3123 38.7525 51.15C38.6933 50.9878 38.6635 50.8105 38.6635 50.6179V50.5114C38.6635 50.2885 38.6966 50.0899 38.7628 49.9159C38.829 49.7402 38.919 49.5914 39.0325 49.4698C39.1462 49.3483 39.2752 49.2562 39.4194 49.1935C39.5636 49.1311 39.713 49.0999 39.8675 49.0999C40.0642 49.0999 40.2339 49.1336 40.3764 49.2012C40.5206 49.2689 40.6386 49.3635 40.7303 49.4851C40.8218 49.6051 40.8898 49.747 40.934 49.9107C40.978 50.073 41 50.2504 41 50.443V50.6533H38.9435V50.2706H40.5291V50.2352C40.5224 50.1135 40.4969 49.9953 40.4529 49.8804C40.4104 49.7656 40.3426 49.6708 40.2492 49.5966C40.1559 49.5222 40.0287 49.4851 39.8675 49.4851C39.7605 49.4851 39.6621 49.5078 39.5721 49.5536C39.4823 49.5974 39.4051 49.6633 39.3406 49.7512C39.2761 49.839 39.2259 49.9463 39.1904 50.073C39.1547 50.1996 39.1369 50.3459 39.1369 50.5114V50.6179C39.1369 50.7479 39.1547 50.8705 39.1904 50.9853C39.2277 51.0985 39.2812 51.1983 39.3507 51.2844C39.4221 51.3705 39.5076 51.4382 39.6078 51.4872C39.7096 51.5362 39.825 51.5606 39.954 51.5606C40.1202 51.5606 40.2611 51.5268 40.3764 51.4593C40.4919 51.3916 40.5928 51.3013 40.6793 51.1881L40.9645 51.4136C40.905 51.5031 40.8295 51.5885 40.7378 51.6696C40.6463 51.7507 40.5334 51.8165 40.3994 51.8672C40.2669 51.918 40.11 51.9433 39.9285 51.9433Z" fill="#EBEBEB"/>
</g>
<defs>
<clipPath id="clip0_30854_120939">
<rect width="52" height="56" fill="white"/>
</clipPath>
</defs>
</svg>
