<svg data-name="Layer 1" xmlns="http://www.w3.org/2000/svg" viewBox="0 0 50 25" width="50" height="25">
  <path d="m31.986 0 .762 1.234 1.245 2.007 1.248 2.006.667 1.077-6.705 4.04-.684-1.084c.115.018.209.033.304.045.581.074 1.14-.033 1.685-.226.807-.287 1.53-.731 2.225-1.222.651-.461 1.296-.932 1.944-1.399.009-.006.016-.015.035-.033l-.22-.416q-.088.054-.165.106c-.645.464-1.288.931-1.978 1.327-.515.296-1.044.564-1.613.741-.43.134-.868.216-1.321.145-.464-.074-.806-.323-1.051-.718-.334-.539-.335-1.109-.171-1.696.212-.761.604-1.435 1.048-2.08a9 9 0 0 1 1.038-1.279c.509-.509 1.234-.375 1.535.281.028.06.059.117.098.195l.145-.161c.226-.235.453-.472.682-.703.054-.052.037-.098.015-.146-.331-.715-.954-1.089-1.769-.94-.415.076-.741.305-1.04.581-.705.654-1.252 1.433-1.756 2.243A14 14 0 0 0 27.025 6.2l-.104.279c-.524-.839-1.034-1.655-1.55-2.484l.506-.313 2.115-1.279L30.474.904q.745-.452 1.491-.909h.022Z" style="fill:#e8282b;stroke-width:0"/>
  <path d="M48.796 17.845c-.154.245-.32.481-.54.675a2.52 2.52 0 0 1-1.829.646 2.7 2.7 0 0 1-.65-.099c-.456-.13-.748-.444-.902-.889a4.5 4.5 0 0 1-.225-1.461c-.007-1.869-.007-3.736-.01-5.605v-.151a2 2 0 0 0-.129-.007h-.573c-.054 0-.121.01-.113-.076.006-.066-.041-.146.083-.18.219-.059.438-.125.642-.22.585-.271 1.008-.723 1.33-1.272.388-.657.59-1.377.715-2.123.007-.044.02-.086.021-.13.003-.086.044-.11.125-.107.204.005.17-.005.17.172v3.691q.066.005.121.006c.371 0 .741.003 1.113-.001.089 0 .121.022.121.116s-.021.128-.122.126c-.364-.006-.726-.003-1.09-.003-.044 0-.086.004-.142.006v.128c0 2.026-.004 4.053.004 6.079 0 .287.031.579.091.86.075.351.34.49.693.406.366-.086.593-.347.787-.645q.035-.055.066-.109c.084.043.161.083.239.121v.044Zm-34.615-3.389c-.024-.009-.035-.015-.045-.015-.529 0-1.056.016-1.574.141-.509.124-.843.422-.939.945a6 6 0 0 0-.102.871c-.019.489.009.976.15 1.449.193.646.641.926 1.305.818.448-.072.754-.349 1.011-.7a.98.98 0 0 0 .2-.63c-.014-.914-.006-1.829-.006-2.743zm3.268 2.929h.146q.03.001.071.007c.004.466-.081.89-.434 1.229a1.95 1.95 0 0 1-2.186.343c-.349-.17-.574-.459-.725-.809l-.039-.089c-.021.019-.04.029-.051.045-.526.736-1.255 1.064-2.146 1.059-.522-.004-1.038-.058-1.538-.23-.914-.318-1.449-1.05-1.474-2.018-.016-.618.144-1.169.583-1.619.351-.36.789-.58 1.259-.739a7.4 7.4 0 0 1 1.821-.351c.45-.034.901-.045 1.351-.063.063-.003.095-.016.094-.086-.01-.686.036-1.374-.06-2.056a4 4 0 0 0-.145-.585.78.78 0 0 0-.529-.506c-.642-.207-1.279-.191-1.891.113-.107.054-.2.145-.286.233-.07.07-.058.142.026.214.263.219.512.453.672.762a.974.974 0 0 1-.674 1.411 1.7 1.7 0 0 1-.743-.005c-.439-.101-.741-.453-.791-.92-.079-.736.226-1.288.826-1.691.403-.271.854-.42 1.331-.486.877-.122 1.75-.096 2.606.152.637.185 1.169.524 1.506 1.116a2.9 2.9 0 0 1 .355 1.204c.019.211.022.425.022.637.003 1.145 0 2.291.006 3.436q.004.346.061.689c.039.233.171.338.385.352.244.016.435-.089.504-.304.044-.138.055-.285.084-.448m17.708-2.605h.005c0-.576.004-1.153-.001-1.729-.004-.463-.015-.924-.105-1.38-.1-.509-.333-.771-.841-.856a2.7 2.7 0 0 0-.764-.006c-.16.018-.323.098-.464.181-.233.139-.32.384-.379.634-.106.453-.125.916-.126 1.377-.004 1.288-.005 2.576.011 3.865.005.386.058.775.111 1.159.06.43.306.713.74.813q.374.086.755.033c.575-.079.868-.346.949-.915q.088-.6.104-1.204c.016-.656.005-1.314.005-1.971m2.741.004c.006 1.05-.259 1.972-.882 2.774-.67.864-1.528 1.434-2.626 1.577-1.38.18-2.559-.234-3.502-1.265-1.065-1.165-1.375-2.549-1.055-4.061.311-1.47 1.209-2.509 2.6-3.064 1.189-.475 2.36-.341 3.439.36.868.564 1.502 1.325 1.826 2.324.147.454.203.922.201 1.355m-15.642 4.222h-4.599v-.403h1.096v-.215l.004-6.124V7.604c0-.434-.007-.866-.005-1.3 0-.101-.035-.124-.128-.121-.245.006-.491.003-.745.003v-.313q.074-.005.149-.007.709-.02 1.419-.043a2.94 2.94 0 0 0 1.452-.417l.077-.043c.006-.003.014-.003.037-.004q.006.083.007.168v12.842c0 .254-.035.216.224.22q.451.006.902.004c.08 0 .114.02.109.105-.006.099-.001.198-.001.307" style="fill:#fff;stroke-width:0"/>
  <path d="M39.706 10.752c.013-.244.021-.474.036-.704.034-.534.044-1.071.111-1.601.102-.807.489-1.489 1.035-2.085.236-.258.49-.492.834-.588.537-.149 1.077-.169 1.586.092.674.346.894.936.846 1.651-.005.076-.021.152-.035.228-.084.46-.49.781-.981.767-.509-.016-.84-.264-1.039-.713a.954.954 0 0 1 .444-1.239q.104-.05.2-.115c.203-.135.234-.309.072-.489a.37.37 0 0 0-.22-.098c-.43-.039-.907.297-1.074.698-.263.63-.191 1.252 0 1.874.224.729.276 1.474.254 2.229 0 .025.004.05.006.086h1.1v.281h-1.113v.141q0 3.64-.003 7.279c0 .107.02.147.138.145.344-.009.689-.003 1.04-.003v.41H38.68c0-.119-.004-.239.004-.357 0-.019.058-.046.089-.048.269-.003.536 0 .804 0h.119v-7.564h-1.091v-.276zM8.5 16.361c-.166.892-.496 1.677-1.236 2.235-.54.406-1.161.56-1.826.575-.844.02-1.634-.168-2.335-.647-1.07-.731-1.734-1.724-1.869-3.033-.094-.917.03-1.805.465-2.626.556-1.052 1.373-1.823 2.521-2.199.662-.216 1.34-.23 2.024-.12.574.092 1.094.309 1.518.716.544.52.736 1.155.555 1.885-.102.414-.458.682-.884.731-.311.034-.611.011-.88-.159-.311-.196-.43-.505-.468-.856a1.4 1.4 0 0 1 .307-1.059q.099-.125.191-.255c.094-.128.107-.224.01-.35a.8.8 0 0 0-.285-.246c-.549-.23-1.109-.24-1.654.009-.372.171-.563.5-.67.882-.155.552-.196 1.119-.2 1.689-.004.884-.004 1.768.01 2.651.007.502.068 1.002.21 1.489.16.546.47.958 1.044 1.101a2.3 2.3 0 0 0 1.745-.23c.571-.325.945-.825 1.199-1.419.085-.198.149-.406.216-.611.06-.185.019-.155.212-.159.021 0 .043.004.079.006m14.31 2.803v-3.07c.075 0 .149-.01.217.004.036.007.071.055.091.092.203.378.385.766.608 1.133.315.522.703.993 1.256 1.28.619.321 1.264.41 1.915.107.487-.226.757-.634.843-1.16.04-.249.054-.496-.058-.735-.134-.286-.374-.454-.647-.584-.406-.191-.845-.259-1.284-.329-.515-.081-1.028-.174-1.514-.37-.509-.205-.95-.495-1.212-.999-.219-.419-.278-.873-.256-1.335.043-.944.458-1.694 1.215-2.252.544-.401 1.163-.515 1.825-.448.465.048.897.21 1.336.354.084.026.168.061.254.071.19.022.35-.055.435-.219.081-.156.188-.199.36-.154.003.026.01.065.01.102q.002 1.195-.003 2.39c0 .04-.028.109-.055.116-.131.036-.209.006-.235-.077a4.5 4.5 0 0 0-.569-1.221c-.375-.545-.866-.924-1.532-1.038-.504-.086-.988-.04-1.424.258-.495.338-.735.955-.561 1.491.109.333.329.584.675.666a10 10 0 0 0 1.061.179c.6.077 1.202.14 1.769.376.416.174.791.401 1.054.781.229.333.339.706.376 1.103.064.66.013 1.308-.276 1.915q-.596 1.26-1.97 1.526c-.626.121-1.224.006-1.816-.188-.289-.095-.58-.19-.889-.188-.295.003-.549.091-.701.37a.11.11 0 0 1-.075.046c-.069.006-.139.003-.221.003" style="fill:#fff;stroke-width:0"/>
  <path d="M24.999 20.681h23.622q.175 0 .174.17t-.175.171H1.376c-.168 0-.168 0-.168-.165 0-.022.004-.045 0-.065-.014-.089.026-.121.111-.111.04.004.081 0 .121 0z" style="fill:#e8282b;stroke-width:0"/>
  <path style="fill:#fff;stroke-width:0" d="M1.316 22.521v.398h.654v2.056h.492v-2.056h.654v-.398zm3.073-.004v2.458h1.425v-.401h-.933v-.65h.826v-.39h-.826v-.615h.933v-.402zm2.829.579a1.16 1.16 0 0 1 .446-.446q.283-.16.635-.16.412 0 .72.211.309.211.432.584h-.566q-.084-.175-.237-.264c-.153-.089-.22-.087-.354-.087q-.214 0-.381.1c-.167.1-.198.161-.26.282q-.094.183-.094.429c0 .246.031.305.094.427s.149.217.26.285q.167.1.381.1.2 0 .354-.09a.6.6 0 0 0 .237-.265h.566q-.123.377-.43.585c-.307.208-.446.209-.723.209q-.352.001-.635-.16a1.16 1.16 0 0 1-.446-.445q-.164-.285-.164-.647c0-.362.055-.458.164-.649m5.115-.574v1.009h-1.051v-1.009h-.492v2.454h.492v-1.044h1.051v1.044h.493v-2.454zm3.499-.004v1.688l-1.115-1.688h-.492v2.458h.492v-1.684l1.115 1.684h.493v-2.458zm3.422 1.943a.7.7 0 0 0 .264-.286q.095-.187.095-.432c0-.245-.033-.307-.095-.43a.7.7 0 0 0-.264-.284q-.169-.098-.39-.099c-.221-.001-.279.033-.391.099a.67.67 0 0 0-.266.284q-.095.184-.095.43c0 .246.031.309.095.432a.67.67 0 0 0 .266.286q.17.1.391.1c.221 0 .278-.034.39-.1m-1.024.378a1.2 1.2 0 0 1-.458-.448q-.169-.287-.169-.649c0-.362.056-.454.169-.645s.265-.34.458-.448.404-.161.632-.161.444.054.635.161.343.258.454.448q.167.286.168.645c.001.359-.056.458-.168.649a1.2 1.2 0 0 1-.455.448q-.289.161-.634.161c-.345 0-.44-.054-.632-.161m3.169-2.317v2.454h1.301v-.39h-.81v-2.064zm4.057 1.939a.7.7 0 0 0 .264-.286q.095-.187.095-.432c0-.245-.033-.307-.095-.43a.7.7 0 0 0-.264-.284q-.169-.098-.39-.099c-.221-.001-.279.033-.391.099a.67.67 0 0 0-.266.284q-.095.184-.095.43c0 .246.031.309.095.432a.67.67 0 0 0 .266.286q.17.1.391.1c.221 0 .278-.034.39-.1m-1.024.378a1.2 1.2 0 0 1-.458-.448q-.169-.287-.169-.649c0-.362.056-.454.169-.645s.265-.34.458-.448.404-.161.632-.161.444.054.635.161.343.258.454.448q.167.286.168.645c.001.359-.056.458-.168.649a1.2 1.2 0 0 1-.455.448q-.289.161-.634.161c-.345 0-.44-.054-.632-.161m4.878-1.578a.6.6 0 0 0-.233-.236.7.7 0 0 0-.345-.081q-.218 0-.388.099c-.17.099-.2.16-.264.281s-.095.263-.095.421.033.306.096.429a.7.7 0 0 0 .269.281.8.8 0 0 0 .401.099q.282 0 .46-.149a.7.7 0 0 0 .236-.416h-.844v-.376h1.33v.429q-.05.256-.211.474c-.161.218-.246.263-.416.35s-.36.131-.571.131q-.354 0-.642-.16a1.17 1.17 0 0 1-.45-.445q-.164-.285-.164-.647c0-.362.055-.458.164-.649a1.15 1.15 0 0 1 .45-.446q.287-.16.639-.16.414 0 .72.203.306.202.421.568h-.566Zm3.308-.739-.523 1.121-.528-1.121h-.556l.834 1.599v.855h.492v-.855l.83-1.599zm3.499 0v2.454h.493v-1.036h.783v-.392h-.783v-.628h1.022v-.398zm2.778 0h.492v2.455h-.492zm2.384 1.129h.411q.201 0 .299-.096.099-.097.099-.269c0-.172-.033-.2-.099-.263q-.098-.093-.299-.092h-.411zm.774 1.326-.541-.956h-.233v.956h-.492v-2.455h.921q.284 0 .485.1c.201.1.234.158.301.27q.1.171.1.381 0 .241-.141.438c-.141.197-.234.22-.419.269l.588.995h-.57Zm2.287-.063a.76.76 0 0 1-.325-.254.65.65 0 0 1-.122-.39h.527q.01.151.107.239c.097.088.154.087.266.087s.205-.028.27-.083a.27.27 0 0 0 .099-.216.26.26 0 0 0-.066-.18.5.5 0 0 0-.168-.111 3 3 0 0 0-.276-.09q-.24-.069-.389-.139a.59.59 0 0 1-.363-.578q0-.218.109-.38c.109-.162.174-.19.306-.247q.197-.086.45-.086.38 0 .618.185a.7.7 0 0 1 .263.515h-.541a.28.28 0 0 0-.107-.209.4.4 0 0 0-.265-.083q-.143 0-.23.074c-.087.074-.086.121-.086.215q0 .098.065.164.066.066.161.105.097.04.273.092.24.07.39.141.152.07.26.211c.108.141.109.216.109.369a.7.7 0 0 1-.401.635q-.196.1-.468.1c-.272 0-.325-.029-.463-.087m2.537-2.391v.398h.655v2.056h.491v-2.056h.655v-.398z"/>
</svg>
